<svg width="22" height="18" viewBox="0 0 22 18" fill="none" xmlns="http://www.w3.org/2000/svg">
<path d="M18.9512 4.84375C19.7715 4.22852 20.5098 3.49023 21.084 2.62891C20.3457 2.95703 19.4844 3.20312 18.623 3.28516C19.5254 2.75195 20.1816 1.93164 20.5098 0.90625C19.6895 1.39844 18.7461 1.76758 17.8027 1.97266C16.9824 1.11133 15.875 0.619141 14.6445 0.619141C12.2656 0.619141 10.3379 2.54688 10.3379 4.92578C10.3379 5.25391 10.3789 5.58203 10.4609 5.91016C6.89258 5.70508 3.69336 3.98242 1.56055 1.39844C1.19141 2.01367 0.986328 2.75195 0.986328 3.57227C0.986328 5.04883 1.72461 6.36133 2.91406 7.14062C2.2168 7.09961 1.51953 6.93555 0.945312 6.60742V6.64844C0.945312 8.74023 2.42188 10.4629 4.39062 10.873C4.0625 10.9551 3.65234 11.0371 3.2832 11.0371C2.99609 11.0371 2.75 10.9961 2.46289 10.9551C2.99609 12.6777 4.5957 13.9082 6.48242 13.9492C5.00586 15.0977 3.16016 15.7949 1.15039 15.7949C0.78125 15.7949 0.453125 15.7539 0.125 15.7129C2.01172 16.9434 4.26758 17.6406 6.72852 17.6406C14.6445 17.6406 18.9512 11.1191 18.9512 5.41797C18.9512 5.21289 18.9512 5.04883 18.9512 4.84375Z" fill="white"/>
</svg>
